<svg data-v-423bf9ae="" xmlns="http://www.w3.org/2000/svg" viewBox="0 0 433 90" class="iconLeft"><!----><!----><!----><g data-v-423bf9ae="" id="25ae16d6-a1c6-4688-a85c-bb1a6bf82db3" fill="#ffffff" transform="matrix(5.9880242347717285,0,0,5.9880242347717285,102.874267578125,-6.796407222747803)"><path d="M2.07 13.50C2.07 7.24 2.07 5.61 2.06 5.01C2.44 6.05 2.74 6.80 5.47 13.50L6.23 13.50C8.97 6.79 9.25 6.06 9.65 5.03L9.65 13.50L10.51 13.50L10.51 3.82L9.20 3.82C6.47 10.53 6.20 11.26 5.88 12.15C5.54 11.24 5.24 10.50 2.51 3.82L1.19 3.82L1.19 13.50ZM18.59 13.50L18.59 12.64L13.79 12.64L13.79 3.82L12.91 3.82L12.91 13.50ZM19.24 11.96C20.08 12.98 21.45 13.66 23.09 13.66C25.33 13.66 26.66 12.70 26.66 10.96C26.66 9.60 26.03 8.78 24.07 8.34L22.57 8.01C21.11 7.67 20.75 7.11 20.75 6.26C20.75 5.46 21.21 4.47 23.10 4.47C24.29 4.47 25.27 4.94 25.86 5.61L26.47 4.94C25.54 3.95 24.43 3.64 23.17 3.64C20.97 3.64 19.80 4.68 19.80 6.34C19.80 7.57 20.43 8.48 21.99 8.83L23.45 9.17C25.34 9.59 25.69 10.21 25.69 11.06C25.69 11.87 25.20 12.82 23.16 12.82C21.78 12.82 20.59 12.22 19.91 11.33ZM31.37 13.50L31.37 4.68L34.68 4.68L34.68 3.82L27.19 3.82L27.19 4.68L30.46 4.68L30.46 13.50ZM35.43 13.50L35.43 12.05L34.34 12.05L34.34 13.50ZM38.23 13.50C38.23 7.24 38.23 5.61 38.22 5.01C38.60 6.05 38.91 6.80 41.64 13.50L42.39 13.50C45.14 6.79 45.42 6.06 45.81 5.03L45.81 13.50L46.68 13.50L46.68 3.82L45.36 3.82C42.63 10.53 42.36 11.26 42.04 12.15C41.71 11.24 41.40 10.50 38.67 3.82L37.35 3.82L37.35 13.50ZM55.02 13.50L55.02 12.64L49.95 12.64L49.95 8.89L54.61 8.89L54.61 8.04L49.95 8.04L49.95 4.68L54.84 4.68L54.84 3.82L49.07 3.82L49.07 13.50Z"></path></g><!----><g data-v-423bf9ae="" id="e17be10a-15c9-4924-ac62-7b7fe6c58164" transform="matrix(3.75,0,0,3.75,36.125,-20.125)" stroke="none" fill="#D1793F"><path d="M8.5 5.5v6h6v-6h-6zm4 4h-2v-2h2v2zM-9.5 29.5h6v-6h-6v6zm2-4h2v2h-2v-2zM-1.97 23.03l-1.06-1.06 2-2 1.06 1.06zM2.03 19.03L.97 17.97l2-2 1.06 1.06zM6.03 15.03l-1.06-1.06 2-2 1.06 1.06z"></path></g><!----></svg>